<?xml version="1.0" encoding="UTF-8"?><svg id="Laag_1" xmlns="http://www.w3.org/2000/svg" viewBox="0 0 548.64 129.07"><g style="isolation:isolate;"><g style="isolation:isolate;"><path d="M23.11,19.19c-9.24.2-13.87.31-23.11.53V1.79c22.79-.05,45.58-.09,68.38-.13-.02,6.65-.02,9.97-.04,16.62-9.25.17-13.87.26-23.12.44-.06,34.04-.12,68.08-.18,102.12-8.82,1.15-13.23,1.75-22.04,3.01.03-34.89.07-69.77.1-104.66Z" style="fill:#e31018;"/><path d="M79.03,1.64c20.11-.03,40.22-.06,60.34-.08-.02,6.26-.03,9.39-.04,15.65-12.74.15-25.48.32-38.21.52-.03,9.94-.06,19.89-.08,29.83,10.12-.42,20.25-.79,30.37-1.13-.02,6.3-.03,9.44-.04,15.74-10.13.45-20.25.95-30.37,1.51-.03,11.55-.06,23.11-.1,34.66,12.73-1.07,25.47-2.03,38.22-2.86-.02,6.26-.03,9.39-.04,15.65-20.14,1.6-40.23,3.48-60.32,5.64.1-38.38.19-76.76.29-115.14Z" style="fill:#e31018;"/><path d="M156.59,104.4c-5.49-4.35-8.22-10.95-8.2-19.76,0-2.49.01-3.73.02-6.22,8.37-.42,12.56-.62,20.94-.97,0,2.95-.01,4.43-.02,7.38-.02,6.97,3.8,10.24,11.46,9.89,3.76-.17,6.62-1.13,8.57-2.89,1.95-1.75,2.93-4.5,2.94-8.25,0-4.46-1.33-8.34-4-11.65-2.68-3.31-7.67-7.23-14.87-11.82-9.1-5.8-15.47-11.25-19.08-16.16-3.61-4.91-5.4-10.56-5.39-16.88.02-8.61,2.86-15.31,8.5-20.02C163.1,2.32,171.28,0,182.01,0c10.59,0,18.6,2.31,24.02,6.88,5.42,4.57,8.13,11.11,8.11,19.65,0,1.75,0,2.62,0,4.37-8.37.08-12.56.13-20.93.24v-5.47c.02-3.65-.92-6.3-2.79-7.95-1.88-1.66-4.62-2.48-8.24-2.45-7.38.05-11.07,3.52-11.09,10.37,0,3.89,1.36,7.5,4.1,10.82,2.74,3.32,7.73,7.3,14.97,11.91,9.24,5.89,15.62,11.24,19.1,16.09,3.48,4.85,5.22,10.59,5.21,17.22-.01,8.64-2.88,15.34-8.6,20.19-5.72,4.84-14.03,7.52-24.91,8.1-10.75.57-18.87-1.23-24.36-5.57Z" style="fill:#e31018;"/><path d="M244.54,16.46c-9.26.02-13.88.04-23.14.08,0-6.02.01-9.02.02-15.04,22.79,0,45.59-.01,68.38-.01,0,5.98,0,8.96,0,14.94-9.26-.01-13.88-.01-23.14,0,0,29.86-.01,59.72-.02,89.58-8.88.04-13.31.09-22.19.23.03-29.93.05-59.85.08-89.78Z" style="fill:#e31018;"/><path d="M300.47,1.5c19.51,0,39.02.01,58.53.03.01,6.09.02,9.13.03,15.21-12.14-.09-24.28-.16-36.42-.21.01,9.76.03,19.53.04,29.29,9.53.11,19.06.25,28.59.43.01,6.07.02,9.1.03,15.16-9.53-.24-19.07-.43-28.6-.58.02,15.27.04,30.54.06,45.81-8.87-.24-13.31-.33-22.19-.47-.03-34.9-.05-69.79-.08-104.69Z" style="fill:#e31018;"/><path d="M369.65,1.53c8.85,0,13.27.01,22.12.02.08,30.96.17,61.91.25,92.87,12.15.69,24.29,1.49,36.43,2.4.02,6.35.03,9.52.05,15.87-19.5-1.7-39.04-3.09-58.59-4.13-.08-35.68-.17-71.36-.25-107.03Z" style="fill:#e31018;"/><path d="M438.84,1.6c8.85.01,13.27.02,22.12.03.1,38.07.2,76.14.3,114.21-8.84-.93-13.26-1.37-22.11-2.2-.11-37.35-.21-74.7-.32-112.05Z" style="fill:#e31018;"/><path d="M497.07,59.5c-8-19.35-16.15-38.63-24.45-57.85,9.33.01,14,.02,23.33.04,5.05,12.91,10.02,25.85,14.94,38.8.16,0,.24.01.4.02,5.14-12.89,10.2-25.82,15.23-38.76,8.37.02,12.55.03,20.91.04-7.94,19.87-16.03,39.69-24.27,59.44,8.74,21.92,17.19,43.95,25.47,66.05-9.27-1.45-13.92-2.14-23.2-3.47-5.26-14.7-10.63-29.37-16.09-44-.16-.01-.24-.02-.4-.04-5.4,13.24-10.86,26.46-16.37,39.66-8.34-1.03-12.52-1.52-20.87-2.46,8.59-19.1,17.05-38.26,25.37-57.48Z" style="fill:#e31018;"/></g></g></svg>